#!OML:ASF H:\GeneralSubjects\Female5\Project 1\Capture day 1\Session 1\Female5.ASF
:FULLY-SPECIFIED
:DEGREES
428
root -11.1935 16.2989 2.54601 25.9468 -80.4602 -15.7771
lowerback 5.54527 0.15597 0.853399
upperback -10.0151 0.370519 2.90107
thorax -14.1095 0.170172 2.69614
lowerneck -16.2607 -6.16688 -5.95001
upperneck 31.2775 -8.13352 0.412822
head 13.55 -4.47923 -0.222202
rclavicle -7.65321e-015 -1.74931e-014
rhumerus -55.9463 26.1194 -93.1636
rradius 38.024
rwrist 0.858541
rhand -29.7374 -13.0239
rfingers 7.12502
rthumb -3.06384 -42.9816
lclavicle -7.65321e-015 -1.74931e-014
lhumerus -51.5221 5.79919 77.4613
lradius 29.5959
lwrist -10.7086
lhand -30.0014 31.1867
lfingers 7.12502
lthumb -3.31883 61.1406
rfemur 2.34979 27.2389 34.6957
rtibia -5.31894
rfoot -35.9386 -33.7826
rtoes 16.001
lfemur -5.51125 -27.597 -26.286
ltibia 4.31614
lfoot -16.0191 -5.15835
ltoes -15.3486
429
root -11.2158 16.2944 2.54317 26.2693 -79.9522 -16.2305
lowerback 5.55754 0.178951 1.01222
upperback -9.98961 0.424422 2.90077
thorax -14.0876 0.179671 2.59614
lowerneck -16.2957 -6.31666 -6.11222
upperneck 31.2821 -8.39976 0.710665
head 13.5953 -4.57069 -0.126695
rclavicle 2.52457e-014 1.82882e-014
rhumerus -56.1192 26.0659 -93.2029
rradius 37.8477
rwrist 0.682281
rhand -29.6156 -12.9413
rfingers 7.12502
rthumb -2.94622 -42.9007
lclavicle 2.52457e-014 1.82882e-014
lhumerus -51.8331 5.21671 78.1943
lradius 30.1102
lwrist -9.97006
lhand -30.124 31.4432
lfingers 7.12502
lthumb -3.43725 61.3953
rfemur 2.72314 27.3325 35.1025
rtibia -5.47358
rfoot -36.527 -34.0499
rtoes 16.1096
lfemur -5.43144 -27.7538 -26.0696
ltibia 4.49429
lfoot -15.7451 -5.17535
ltoes -15.1568
430
root -11.2355 16.2882 2.53896 26.5212 -79.4817 -16.5714
lowerback 5.54749 0.212752 1.12804
upperback -9.9792 0.484775 2.8838
thorax -14.0695 0.195483 2.50094
lowerneck -16.2652 -6.47494 -6.30198
upperneck 31.2614 -8.68978 1.05126
head 13.6224 -4.67128 -0.0113497
rclavicle 6.06293e-015 -7.55382e-015
rhumerus -56.286 25.9496 -93.2278
rradius 37.6111
rwrist 0.724573
rhand -30.0176 -12.7729
rfingers 7.12502
rthumb -3.33447 -42.7266
lclavicle 6.06293e-015 -7.55382e-015
lhumerus -51.9458 4.68645 78.7477
lradius 30.324
lwrist -9.59683
lhand -28.7597 30.6912
lfingers 7.12502
lthumb -2.11961 60.6604
rfemur 3.06435 27.6844 35.5198
rtibia -5.59075
rfoot -37.1345 -34.5913
rtoes 15.7778
lfemur -5.35254 -27.9057 -25.8382
ltibia 4.58277
lfoot -15.4597 -5.27761
ltoes -14.966
431
root -11.2521 16.2818 2.53385 26.1069 -79.0881 -16.1697
lowerback 5.50624 0.255067 1.04806
upperback -9.9878 0.529134 2.84619
thorax -14.0553 0.223155 2.49581
lowerneck -16.1369 -6.61707 -6.39038
upperneck 31.2073 -8.93023 1.20466
head 13.5967 -4.76637 0.0275438
rclavicle 9.93923e-017 1.55052e-014
rhumerus -56.4656 25.8925 -93.1945
rradius 37.4142
rwrist 0.954524
rhand -30.121 -12.8981
rfingers 7.12502
rthumb -3.43433 -42.8501
lclavicle 9.93923e-017 1.55052e-014
lhumerus -51.9312 4.40715 79.0756
lradius 30.3793
lwrist -9.54173
lhand -27.1394 29.0228
lfingers 7.12502
lthumb -0.554734 59.0018
rfemur 3.29527 28.0549 35.7441
rtibia -5.65556
rfoot -37.9704 -34.9971
rtoes 15.9603
lfemur -5.31177 -28.049 -25.766
ltibia 4.56982
lfoot -15.1651 -5.35277
ltoes -14.5748
432
root -11.2668 16.2776 2.52921 25.7175 -78.7016 -15.7395
lowerback 5.441 0.296472 0.953155
upperback -10.011 0.569801 2.81531
thorax -14.0435 0.250731 2.50751
lowerneck -16.0341 -6.72147 -6.48376
upperneck 31.1838 -9.10276 1.32707
head 13.5856 -4.83661 0.0651677
rclavicle -1.14301e-014 -2.98177e-014
rhumerus -56.6176 25.9965 -93.2405
rradius 37.157
rwrist 1.17954
rhand -29.8492 -13.0348
rfingers 7.12502
rthumb -3.17178 -42.9909
lclavicle -1.14301e-014 -2.98177e-014
lhumerus -51.9583 4.00775 79.4661
lradius 30.4474
lwrist -9.3397
lhand -27.3911 28.3147
lfingers 7.12502
lthumb -0.797864 58.293
rfemur 3.42428 28.3221 35.9083
rtibia -5.68873
rfoot -39.0692 -35.096
rtoes 16.7299
lfemur -5.39163 -27.9776 -25.68
ltibia 4.5757
lfoot -14.6766 -5.38022
ltoes -14.5915
433
root -11.2811 16.2751 2.52408 25.469 -78.2821 -15.445
lowerback 5.37133 0.317378 0.891935
upperback -10.0403 0.586387 2.78582
thorax -14.0351 0.263193 2.5063
lowerneck -15.9228 -6.80438 -6.57388
upperneck 31.1559 -9.24038 1.43663
head 13.5687 -4.89341 0.103743
rclavicle -5.1684e-015 0
rhumerus -56.7829 26.1071 -93.3522
rradius 36.8699
rwrist 1.46984
rhand -29.7883 -12.8997
rfingers 7.12502
rthumb -3.11298 -42.8567
lclavicle -5.1684e-015 0
lhumerus -52.0472 3.56979 79.7662
lradius 30.6665
lwrist -9.34627
lhand -27.0328 28.5627
lfingers 7.12502
lthumb -0.451765 58.542
rfemur 3.53084 28.5064 36.1023
rtibia -5.71206
rfoot -40.0375 -35.1348
rtoes 17.6762
lfemur -5.52041 -27.6993 -25.5376
ltibia 4.58964
lfoot -13.9705 -5.37419
ltoes -14.9775
434
root -11.2935 16.2733 2.51888 25.0134 -77.8535 -14.9573
lowerback 5.37725 0.326712 0.800282
upperback -10.0735 0.585073 2.74373
thorax -14.0789 0.270323 2.51226
lowerneck -15.8024 -6.8603 -6.64612
upperneck 31.0915 -9.33932 1.54499
head 13.5313 -4.93124 0.146991
rclavicle 1.09332e-015 -7.95139e-016
rhumerus -56.993 26.2052 -93.513
rradius 36.5755
rwrist 1.79249
rhand -29.9565 -12.7876
rfingers 7.12502
rthumb -3.27544 -42.7422
lclavicle 1.09332e-015 -7.95139e-016
lhumerus -52.0901 3.41493 79.7261
lradius 30.8422
lwrist -9.78659
lhand -25.7564 28.8255
lfingers 7.12502
lthumb 0.781011 58.8038
rfemur 3.69641 28.7746 36.2961
rtibia -5.75769
rfoot -40.9389 -35.3421
rtoes 18.409
lfemur -5.61613 -27.5651 -25.4518
ltibia 4.60165
lfoot -13.3784 -5.34268
ltoes -15.0862
435
root -11.3018 16.2725 2.51431 24.4775 -77.4584 -14.3492
lowerback 5.44402 0.346141 0.729695
upperback -10.1408 0.598355 2.67524
thorax -14.2025 0.280556 2.47634
lowerneck -15.6311 -6.88915 -6.80039
upperneck 30.9958 -9.40711 1.74812
head 13.4794 -4.95339 0.248337
rclavicle 4.77083e-015 -1.59028e-015
rhumerus -57.2543 26.2988 -93.7021
rradius 36.312
rwrist 2.02429
rhand -29.7511 -12.8057
rfingers 7.12502
rthumb -3.07713 -42.7632
lclavicle 4.77083e-015 -1.59028e-015
lhumerus -52.0519 3.38285 79.5402
lradius 30.7324
lwrist -9.85607
lhand -26.7363 29.4813
lfingers 7.12502
lthumb -0.165388 59.461
rfemur 3.83679 29.2877 36.4424
rtibia -5.79921
rfoot -40.7714 -36.9416
rtoes 15.7766
lfemur -5.8266 -27.557 -25.3765
ltibia 4.70468
lfoot -12.9378 -5.32376
ltoes -15.1617
436
root -11.308 16.2746 2.51277 23.861 -77.1307 -13.6398
lowerback 5.46762 0.37464 0.689912
upperback -10.198 0.622452 2.57095
thorax -14.2856 0.289741 2.38043
lowerneck -15.5687 -6.9301 -6.84986
upperneck 31.0079 -9.45394 1.74209
head 13.4767 -4.98085 0.248315
rclavicle 9.93923e-015 -1.59028e-015
rhumerus -57.4775 26.3997 -93.8337
rradius 36.1339
rwrist 2.19016
rhand -29.2842 -12.6541
rfingers 7.12502
rthumb -2.6262 -42.6177
lclavicle 9.93923e-015 -1.59028e-015
lhumerus -51.9943 3.26782 79.4441
lradius 30.6202
lwrist -9.29741
lhand -28.2884 30.2943
lfingers 7.12502
lthumb -1.6645 60.2676
rfemur 3.94488 29.9131 36.5011
rtibia -5.83059
rfoot -41.7719 -37.4936
rtoes 15.7491
lfemur -6.03396 -27.5749 -25.3665
ltibia 4.81685
lfoot -12.5949 -5.33934
ltoes -14.8185
